<?xml version="1.0" encoding="UTF-8"?>
<svg xmlns="http://www.w3.org/2000/svg" viewBox="0 0 1786.9 714.25">
  <defs>
    <style>
      .cls-1 {
        font-family: BrandonGrotesque-Light, 'Brandon Grotesque';
        font-size: 120px;
        font-weight: 300;
        stroke: #fff;
        stroke-linecap: round;
        stroke-linejoin: round;
        stroke-width: 2px;
      }

      .cls-2, .cls-3 {
        stroke-width: 0px;
      }

      .cls-4 {
        font-family: FragmentCoreRom, 'Fragment Core';
        font-size: 500px;
        letter-spacing: .07em;
      }

      .cls-3 {
        fill: #fff;
      }

      .cls-5 {
        letter-spacing: .2em;
      }

      .cls-6 {
        letter-spacing: .2em;
      }
    </style>
  </defs>
  <g id="Layer_6" data-name="Layer 6">
    <text class="cls-4" transform="translate(0 426.25) scale(1.1 1)"><tspan x="0" y="0">SOTO</tspan></text>
    <text class="cls-1" transform="translate(278.49 189.94)"><tspan class="cls-5" x="0" y="0">W</tspan><tspan class="cls-6" x="131.04" y="0">ORLD OF</tspan></text>
  </g>
  <g id="Layer_4" data-name="Layer 4">
    <g>
      <g id="tail">
        <path class="cls-2" d="m1637.23,593.7c43.79,31.42,105.51,21.15,131.48-7.14,23.43-25.49,20.2-58.28,12.48-78.22-19.2-49.66-73.2-68.54-90.54-37.02-14.07,25.6,20.47,42.36,33.48,58.97,20.36,26.07,3.23,48.44-22.79,48.5-10.58,0-46.7-3.81-59.29-20.15"/>
      </g>
      <g id="legs">
        <path class="cls-2" d="m1504.85,689.47c-26.55,47.12-44.32,17.77-45.48-11.85"/>
        <path class="cls-2" d="m1440.01,666.2c-34.69,57.38-50.61,20.15-44.43-15.28"/>
        <path class="cls-2" d="m1603.91,660.33c50.82,43.74,54.37,3.44,37.5-28.29"/>
      </g>
      <g id="body">
        <path class="cls-2" d="m1334.45,543.56c0,42.15,21,93.08,83.72,125.5,64.79,33.48,229.69,36.33,239.53-66.11,6.35-65.95-35.96-109.79-88.75-114.82"/>
      </g>
      <g id="ears">
        <path class="cls-2" d="m1182.03,342.74s-32-183.94,13.27-207.21c37.18-19.15,147.19,89.43,147.19,89.43"/>
        <path class="cls-2" d="m1581.7,265.74s-38.66-182.67-89.33-187.43c-41.62-3.97-103.4,137.77-103.4,137.77"/>
      </g>
      <g id="whiskers">
        <path class="cls-2" d="m1092.12,517.59c31.04-16.4,67.38-24.96,102.13-27.4,6.08-.42,6.13-9.94,0-9.52-36.55,2.54-74.31,11.48-106.94,28.72-5.45,2.86-.63,11.11,4.81,8.2h0Z"/>
        <path class="cls-2" d="m1149.98,611.78c16.61-30.99,41.31-58.97,69.18-80.12,4.81-3.65.11-11.95-4.81-8.2-29.19,22.11-55.21,51.09-72.61,83.56-2.91,5.39,5.34,10.21,8.2,4.81h0l.05-.05Z"/>
        <path class="cls-2" d="m1762.57,373.21c-36.28-6.98-74.94-4.55-110.69,3.65-5.98,1.38-3.44,10.52,2.54,9.2,33.95-7.77,71.19-10.26,105.67-3.65,5.98,1.16,8.57-8.04,2.54-9.2h-.05Z"/>
        <path class="cls-2" d="m1738.88,482.53c-26.13-25.97-59.39-46.17-93.77-58.86-5.76-2.12-8.25,7.09-2.54,9.2,32.84,12.11,64.68,31.63,89.59,56.43,4.34,4.34,11.11-2.38,6.72-6.72h0v-.05Z"/>
      </g>
      <g id="head">
        <path class="cls-2" d="m1657.85,345.02c30.62,111.86-68.86,212.82-207.42,250.79-138.57,37.97-270.15,16.34-300.82-95.46-30.62-111.8,51.3-271.58,189.87-309.5,138.57-37.97,287.76,42.36,318.38,154.22v-.05Z"/>
      </g>
      <g id="eyes-white">
        <path class="cls-3" d="m1374.22,392.83c8.41,56.54-20.89,107.73-65.53,114.34-44.58,6.66-87.58-33.8-95.99-90.28-8.41-56.54,20.89-107.73,65.53-114.34,44.58-6.66,87.58,33.8,95.99,90.28Z"/>
        <path class="cls-3" d="m1615.54,352.69c8.41,56.54-20.89,107.73-65.53,114.34-44.58,6.66-87.58-33.8-95.99-90.33-8.41-56.54,20.94-107.73,65.53-114.34,44.58-6.66,87.58,33.8,95.99,90.33Z"/>
      </g>
      <g id="eyes">
        <path class="cls-2" d="m1541.24,339.52c6.72,37.13-6.29,70.55-29.09,74.68-22.74,4.13-46.65-22.69-53.31-59.82-6.72-37.13,6.29-70.55,29.09-74.68,22.74-4.13,46.65,22.69,53.31,59.76v.05Z"/>
        <path class="cls-3" d="m1500.73,305.09c1.22,11.21-3.54,20.89-10.68,21.68-7.14.79-13.91-7.67-15.13-18.83-1.22-11.21,3.54-20.89,10.68-21.68,7.14-.79,13.91,7.67,15.13,18.83Z"/>
        <path class="cls-2" d="m1296.37,385c6.72,37.13-6.29,70.55-29.09,74.68-22.74,4.13-46.65-22.69-53.31-59.82-6.72-37.13,6.29-70.55,29.09-74.68,22.74-4.13,46.65,22.69,53.31,59.76v.05Z"/>
        <path class="cls-3" d="m1255.86,350.57c1.22,11.21-3.54,20.89-10.68,21.68-7.14.79-13.91-7.67-15.13-18.83-1.22-11.21,3.54-20.89,10.68-21.68,7.14-.79,13.91,7.67,15.13,18.83Z"/>
      </g>
    </g>
  </g>
</svg>