<?xml version="1.0" encoding="UTF-8"?>
<svg id="Layer_9" data-name="Layer 9" xmlns="http://www.w3.org/2000/svg" viewBox="0 0 764.37 816.76">
  <defs>
    <style>
      .cls-1, .cls-2, .cls-3, .cls-4 {
        stroke-width: 0px;
      }

      .cls-2 {
        fill: #373536;
      }

      .cls-3 {
        fill: #fff;
      }

      .cls-4 {
        fill: #604d53;
      }
    </style>
  </defs>
  <g id="Layer_10" data-name="Layer 10">
    <g>
      <path class="cls-2" d="m227.88,583.68c-.13-.67.13-.88.74-.88h1.62c.4,0,.74.34.81.74l11.31,39.45h.13l11.85-40.26c.13-.4.61-.61,1.01-.61h.13c.4,0,.88.2,1.01.61l11.92,40.26h.13l11.24-39.45c.07-.4.4-.74.81-.74h1.62c.61,0,.88.2.74.88l-13.33,46.45c-.07.27-.34.47-.61.47h-.74c-.34,0-.54-.13-.67-.47l-12.12-41h-.13l-12.12,41c-.13.34-.34.47-.67.47h-.74c-.27,0-.54-.2-.61-.47l-13.33-46.45Z"/>
      <path class="cls-2" d="m326.77,582.14c13.53,0,24.3,10.84,24.3,24.3s-10.77,24.17-24.3,24.17-24.24-10.64-24.24-24.17,10.77-24.3,24.24-24.3Zm0,45.51c11.78,0,21.34-9.42,21.34-21.21s-9.56-21.34-21.34-21.34-21.27,9.56-21.27,21.34,9.49,21.21,21.27,21.21Z"/>
      <path class="cls-2" d="m375.43,583.68c0-.47.34-.88.88-.88h16.7c8.21,0,15.01,6.19,15.01,14.41,0,6.8-4.71,12.25-11.11,14.07l9.83,17.44c.34.54.2,1.21-.47,1.21h-2.09c-.47,0-.74-.2-.94-.61l-9.76-17.64c-.88.07-1.62.07-2.49.07h-12.39v17.3c0,.47-.4.88-1.08.88h-1.21c-.47,0-.88-.4-.88-.88v-45.38Zm17.44,25.25c6.46,0,11.92-5.05,11.92-11.71s-5.45-11.31-11.98-11.31h-14.14v23.02h14.21Z"/>
      <path class="cls-2" d="m432.65,583.68c0-.47.4-.88.88-.88h1.48c.4,0,.81.4.81.88v43.42h21.48c.81,0,.88.4.88.88v1.21c0,.47-.4.74-.88.74h-23.76c-.47,0-.88-.4-.88-.88v-45.38Z"/>
      <path class="cls-2" d="m479.03,583.68c0-.47.4-.88.81-.88h14.27c13.06,0,23.7,10.57,23.7,23.5s-10.64,23.63-23.7,23.63h-14.27c-.4,0-.81-.4-.81-.88v-45.38Zm14.54,43.35c11.78,0,20.87-8.95,20.87-20.73s-9.09-20.6-20.87-20.6h-11.38v41.34h11.38Z"/>
      <path class="cls-2" d="m591.11,582.14c13.53,0,24.3,10.84,24.3,24.3s-10.77,24.17-24.3,24.17-24.24-10.64-24.24-24.17,10.77-24.3,24.24-24.3Zm0,45.51c11.78,0,21.34-9.42,21.34-21.21s-9.56-21.34-21.34-21.34-21.27,9.56-21.27,21.34,9.49,21.21,21.27,21.21Z"/>
      <path class="cls-2" d="m639.77,583.68c0-.47.4-.88.88-.88h27c.47,0,.88.4.88.88v1.14c0,.47-.4.88-.88.88h-24.64v20.47h21.34c.47,0,.88.4.88.88,0,.74.13,1.95-.88,1.95h-21.34l-.07,20.06c0,.47-.4.88-1.08.88h-1.21c-.47,0-.88-.4-.88-.88v-45.38Z"/>
    </g>
    <g>
      <path class="cls-4" d="m89.59,777.04l-13.86-16.8-1.98,24-2.31,2.7h-4.95l-1.98-3.9-1.65-34.5,1.65-18.9,2.97-2.7h7.26l9.9,28.8,9.24,11.4,12.87,9,17.49,5.4h23.43l18.48-4.5,12.21-7.5,10.56-12.9,5.28-17.4v-20.1l-4.95-17.1-13.2-11.7-15.18-7.5-36.63-10.2h-2.64l-23.1-9.6-16.5-11.4-7.92-14.1-1.65-21,2.64-15.6,12.54-16.5,4.95-2.1,1.32-1.5,10.89-4.8,14.19-4.2h20.79l22.11,3.3,13.2,7.2.99,1.2,9.9,6.3,1.32-11.7,2.97-2.1h2.97l2.64,2.1v42h-7.59l-7.92-20.4-11.22-9.9-15.18-7.2-20.79-2.1-20.46,2.1-13.53,5.7-9.57,9-4.62,8.1-2.31,14.4,1.98,13.8,6.27,12.6,16.17,10.5,66.33,19.8,14.52,9.9,11.22,13.8,4.95,18v26.1l-7.26,18.6-12.87,15.9-21.78,9.9-16.5,1.8h-21.45l-15.18-3.6-19.47-9.9Z"/>
      <path class="cls-4" d="m278.68,781.54l-12.87-8.4-12.21-14.4-7.26-20.1v-20.4l4.29-15.3,8.91-14.4,14.19-13.2,13.53-6.9,15.18-4.8,15.51-1.5,19.47,1.8,21.12,9.9,16.17,14.7,10.89,17.1,3.3,21.3-2.97,18.9-10.89,19.2-16.5,15.6-22.11,9.9h-4.62l-15.18,1.2-19.8-1.8-18.15-8.4Zm26.73,0h23.43l14.85-4.5,18.15-11.7,10.89-14.7,5.94-18.3-2.64-21.3-9.24-17.1-14.85-13.5-21.12-7.8h-24.09l-20.13,5.7-14.19,10.8-10.89,13.8-5.28,17.1v15.9l6.27,17.4,13.2,16.2,16.83,8.4,12.87,3.6Z"/>
      <path class="cls-4" d="m445.33,784.24l2.64-2.7,19.47-1.2,1.65-6.3v-96.6h-29.04l-4.95,26.4-4.29,1.8-3.63-1.5v-11.4l.99-9v-.9l2.97-11.7,4.62-3.9h77.88l4.62,3.9,4.29,29.4-2.31,5.1h-6.93l-4.29-28.2h-28.71v103.2h20.13l2.97,5.4-3.3,3.6h-52.14l-2.64-2.7v-2.7Z"/>
      <path class="cls-4" d="m591.51,781.54l-12.87-8.4-12.21-14.4-7.26-20.1v-20.4l4.29-15.3,8.91-14.4,14.19-13.2,13.53-6.9,15.18-4.8,15.51-1.5,19.47,1.8,21.12,9.9,16.17,14.7,10.89,17.1,3.3,21.3-2.97,18.9-10.89,19.2-16.5,15.6-22.11,9.9h-4.62l-15.18,1.2-19.8-1.8-18.15-8.4Zm26.73,0h23.43l14.85-4.5,18.15-11.7,10.89-14.7,5.94-18.3-2.64-21.3-9.24-17.1-14.85-13.5-21.12-7.8h-24.09l-20.13,5.7-14.19,10.8-10.89,13.8-5.28,17.1v15.9l6.27,17.4,13.2,16.2,16.83,8.4,12.87,3.6Z"/>
    </g>
  </g>
  <g>
    <g id="tail">
      <path class="cls-1" d="m484.6,526.22c25.39,21.39,78.12,22.6,106.53,6.39,25.62-14.59,31.47-42.05,30.39-60.24-2.7-45.25-41.6-74.56-63.84-53.49-18.05,17.11,5.63,39.67,11.84,56.51,9.77,26.43-12.38,40.34-34.53,41.96-18.14,1.31-31.11-7.65-40.66-17.83"/>
    </g>
    <g id="body">
      <path class="cls-1" d="m319.5,406.9c0,35.88-39.04,104.32,6.75,143.31,32.15,27.37,157.13,25.53,177.85-11.26,19.27-34.26-9.68-111.21-72.04-136.56"/>
    </g>
    <g id="ears">
      <path class="cls-1" d="m214.63,194.52s2.93-158.89,44.48-171.09c34.13-10,108.6,98.51,108.6,98.51"/>
      <path class="cls-1" d="m561.14,194.52s-2.88-158.89-44.44-171.09c-34.13-10-108.6,98.51-108.6,98.51"/>
    </g>
    <g id="whiskers">
      <path class="cls-1" d="m110.49,344.77c28.64-10.04,60.42-12.7,90.45-10.36,5.22.41,5.18-7.7,0-8.1-30.62-2.39-63.44.41-92.62,10.67-4.91,1.71-2.79,9.55,2.16,7.83h0v-.04Z"/>
      <path class="cls-1" d="m148.18,430.72c17.87-24,42.41-44.3,68.53-58.58,4.59-2.52.5-9.5-4.1-6.98-27.42,14.99-52.68,36.33-71.41,61.5-3.11,4.19,3.92,8.24,6.98,4.1h0v-.05Z"/>
      <path class="cls-1" d="m693.02,306.95c-29.22-10.27-62-13.06-92.62-10.67-5.18.41-5.22,8.51,0,8.1,30.08-2.34,61.82.32,90.45,10.36,4.95,1.76,7.07-6.08,2.16-7.83h0v.05Z"/>
      <path class="cls-1" d="m660.15,396.59c-18.73-25.17-44.03-46.47-71.41-61.5-4.59-2.52-8.69,4.5-4.1,6.98,26.11,14.27,50.65,34.58,68.53,58.58,3.06,4.14,10.13.09,6.98-4.1h0v.04Z"/>
    </g>
    <g id="head">
      <path class="cls-1" d="m612.02,273.09c7.61,98.42-91.85,166.82-213.78,176.23-121.93,9.41-228.5-29.85-236.06-128.27-7.61-98.42,86.63-218.73,208.55-228.14,121.93-9.41,233.72,81.76,241.33,180.19h-.04Z"/>
    </g>
    <g id="eyes-white">
      <ellipse class="cls-3" cx="294.6" cy="274.98" rx="69.52" ry="88.07"/>
      <ellipse class="cls-3" cx="502.83" cy="271.42" rx="69.52" ry="88.07"/>
    </g>
    <g id="eyes">
      <path class="cls-1" d="m574.38,301.82c.99,32.1-14.18,58.62-33.86,59.21-19.68.59-36.42-24.94-37.42-57.05-.99-32.1,14.18-58.62,33.86-59.21,19.68-.63,36.42,24.94,37.42,57.05Z"/>
      <path class="cls-3" d="m544.62,267.73c-.36,9.59-5.63,17.15-11.71,16.93-6.12-.23-10.76-8.19-10.4-17.78s5.63-17.15,11.75-16.93c6.12.23,10.76,8.19,10.4,17.78h-.05Z"/>
      <path class="cls-1" d="m362.49,309.42c.99,32.1-14.18,58.62-33.86,59.21-19.68.59-36.42-24.94-37.42-57.05-.99-32.1,14.18-58.62,33.86-59.21,19.68-.63,36.42,24.94,37.42,57.05Z"/>
      <path class="cls-3" d="m332.73,275.34c-.36,9.59-5.63,17.15-11.71,16.93-6.12-.23-10.76-8.19-10.4-17.78.36-9.59,5.63-17.15,11.75-16.93,6.12.23,10.76,8.19,10.4,17.78h-.05Z"/>
    </g>
  </g>
</svg>