<?xml version="1.0" encoding="UTF-8"?>
<svg xmlns="http://www.w3.org/2000/svg" viewBox="0 0 1699.88 780.77">
  <defs>
    <style>
      .cls-1 {
        font-family: BrandonGrotesque-Light, 'Brandon Grotesque';
        font-size: 120px;
        font-weight: 300;
        stroke: #fff;
        stroke-linecap: round;
        stroke-linejoin: round;
        stroke-width: 2px;
      }

      .cls-2, .cls-3 {
        stroke-width: 0px;
      }

      .cls-4 {
        font-family: FragmentCoreRom, 'Fragment Core';
        font-size: 500px;
        letter-spacing: .07em;
      }

      .cls-3 {
        fill: #fff;
      }

      .cls-5 {
        letter-spacing: .2em;
      }

      .cls-6 {
        letter-spacing: .2em;
      }
    </style>
  </defs>
  <g id="Layer_1" data-name="Layer 1">
    <g>
      <g id="tail">
        <path class="cls-2" d="m392.29,617.8c-40.58,37.23-43.17,101.1-20.32,133.03,20.64,28.75,54.09,32.37,75.65,28.8,53.66-8.81,83.86-58.9,55.87-82.84-22.64-19.45-46.63,11.62-65.98,21.13-30.31,14.97-49.12-6.86-43.77-32.96,2.16-10.59,13.56-45.88,32.48-55.06"/>
      </g>
      <g id="legs">
        <path class="cls-2" d="m521.06,575.6c61.28,30.69,24.64,49.87-11.94,46.52"/>
        <path class="cls-2" d="m297.03,573.33c-58.74,54.41-14.1,63.11,24.75,47.06"/>
        <path class="cls-2" d="m491.88,507.19c77.43,20.32,42.2,49.01.38,53.17"/>
        <path class="cls-2" d="m321.61,644.44c-24.96,63.82,15.13,53.55,40.04,26.53"/>
      </g>
      <g id="body">
        <path class="cls-2" d="m297.78,481.04c4.59,42.8-31.66,141.73,27.94,182.42,41.82,28.58,170.59-5.78,200.31-46.85,28.37-39.28-47.61-138.55-86.35-171.89"/>
      </g>
      <g id="ears">
        <path class="cls-2" d="m89.42,287.05s-42.85-185.88,2-212.14c36.85-21.56,155.14,83.11,155.14,83.11"/>
        <path class="cls-2" d="m492.91,186.33S443.3,2.12,391.37.02c-42.69-1.73-97.86,146.27-97.86,146.27"/>
      </g>
      <g id="whiskers">
        <path class="cls-2" d="m7.18,470.55c30.75-18.43,67.27-29.34,102.67-33.77,6.16-.76,6.21-10.48,0-9.73-37.12,4.59-75.27,15.72-107.53,35.07-5.35,3.24-.49,11.62,4.92,8.38h0l-.05.05Z"/>
        <path class="cls-2" d="m71.54,563.49c15.45-33.02,39.39-63.01,67.06-86.46,4.81-4.05-2.11-10.92-6.86-6.86-28.21,23.88-52.79,54.79-68.57,88.4-2.65,5.62,5.73,10.59,8.38,4.92h0Z"/>
        <path class="cls-2" d="m683.65,285.97c-37.39-5.08-76.68-.65-112.77,9.73-6,1.73-3.46,11.13,2.59,9.4,33.88-9.73,74.14-14.27,107.58-9.73,6.11.81,8.75-8.54,2.59-9.4h0Z"/>
        <path class="cls-2" d="m665.49,398.96c-28.1-25.07-63.01-43.93-98.88-54.95-6-1.84-8.54,7.56-2.59,9.4,34.15,10.54,67.81,28.58,94.62,52.47,4.65,4.16,11.56-2.7,6.86-6.86h0v-.05Z"/>
      </g>
      <g id="head">
        <path class="cls-2" d="m574.98,262.95c37.45,112.39-58.47,220.95-197.71,267.37-139.25,46.42-274.72,31.72-312.16-80.67C27.66,337.25,102.39,169.74,241.59,123.32c139.25-46.42,295.9,27.23,333.4,139.63Z"/>
      </g>
      <g id="eyes-white">
        <path class="cls-3" d="m277.95,330.6c14.86,56.47-9.19,111.74-53.77,123.47-44.58,11.73-92.72-24.53-107.58-80.94-14.86-56.47,9.19-111.74,53.77-123.47,44.53-11.73,92.72,24.53,107.58,81v-.05Z"/>
        <path class="cls-3" d="m518.52,262.84c14.86,56.47-9.19,111.74-53.77,123.47-44.53,11.73-92.72-24.53-107.58-81-14.86-56.47,9.19-111.74,53.77-123.47,44.58-11.73,92.72,24.53,107.58,81Z"/>
      </g>
      <g id="eyes">
        <path class="cls-2" d="m459.08,271.16c10.97,36.96,1.46,72.35-21.18,79.05-22.64,6.7-49.87-17.78-60.84-54.74-10.97-36.96-1.51-72.35,21.18-79.05,22.64-6.7,49.87,17.78,60.84,54.74Z"/>
        <path class="cls-3" d="m414.12,240.74c2.49,11.24-1.3,21.61-8.43,23.24-7.19,1.57-14.97-6.21-17.51-17.45-2.49-11.24,1.3-21.61,8.43-23.24,7.19-1.57,14.97,6.21,17.51,17.45Z"/>
        <path class="cls-2" d="m256.88,333.9c10.97,36.96,1.46,72.35-21.18,79.05-22.64,6.7-49.87-17.78-60.84-54.74-10.97-36.96-1.46-72.35,21.18-79.05,22.64-6.75,49.87,17.78,60.84,54.74Z"/>
        <path class="cls-3" d="m211.92,303.48c2.49,11.24-1.3,21.61-8.43,23.18-7.19,1.62-15.02-6.21-17.51-17.45-2.49-11.24,1.3-21.61,8.43-23.24,7.13-1.57,14.97,6.21,17.51,17.45v.05Z"/>
      </g>
    </g>
  </g>
  <g id="Layer_6_copy_2" data-name="Layer 6 copy 2">
    <text class="cls-4" transform="translate(562.51 537.8) scale(1.1 1)"><tspan x="0" y="0">SOTO</tspan></text>
    <text class="cls-1" transform="translate(841 301.5)"><tspan class="cls-5" x="0" y="0">W</tspan><tspan class="cls-6" x="131.04" y="0">ORLD OF</tspan></text>
  </g>
</svg>