<?xml version="1.0" encoding="UTF-8"?>
<svg xmlns="http://www.w3.org/2000/svg" viewBox="0 0 1779.74 751.3">
  <defs>
    <style>
      .cls-1 {
        font-family: BrandonGrotesque-Light, 'Brandon Grotesque';
        font-size: 120px;
        font-weight: 300;
      }

      .cls-2, .cls-3 {
        stroke-width: 0px;
      }

      .cls-4 {
        font-family: FragmentCoreRom, 'Fragment Core';
        font-size: 500px;
        letter-spacing: .07em;
      }

      .cls-3 {
        fill: #fff;
      }

      .cls-5 {
        letter-spacing: .2em;
      }

      .cls-6 {
        letter-spacing: .2em;
      }
    </style>
  </defs>
  <g id="Layer_3" data-name="Layer 3">
    <g>
      <g id="tail">
        <path class="cls-2" d="m469.26,623.24c31.44,26.48,96.71,27.98,131.88,7.91,31.72-18.06,38.96-52.06,37.62-74.58-3.34-56.02-51.5-92.3-79.04-66.22-22.35,21.18,6.97,49.11,14.66,69.95,12.1,32.72-15.33,49.94-42.75,51.95-22.46,1.62-38.52-9.48-50.33-22.07"/>
      </g>
      <g id="body">
        <path class="cls-2" d="m264.86,475.53c0,44.42-48.33,129.15,8.36,177.42,39.8,33.89,194.53,31.6,220.17-13.93,23.86-42.42-11.98-137.68-89.18-169.06"/>
      </g>
      <g id="ears">
        <path class="cls-2" d="m135.05,212.61S138.67,15.91,190.12.81c42.25-12.37,134.44,121.96,134.44,121.96"/>
        <path class="cls-2" d="m564.01,212.61S560.45,15.91,509,.81c-42.25-12.37-134.44,121.96-134.44,121.96"/>
      </g>
      <g id="whiskers">
        <path class="cls-2" d="m6.12,398.61c35.45-12.43,74.8-15.72,111.98-12.82,6.47.5,6.41-9.53,0-10.03-37.9-2.95-78.54.5-114.65,13.21-6.08,2.12-3.46,11.82,2.68,9.7h0v-.06Z"/>
        <path class="cls-2" d="m52.78,505.02c22.13-29.71,52.51-54.85,84.83-72.52,5.69-3.12.61-11.76-5.07-8.64-33.94,18.56-65.21,44.98-88.4,76.14-3.85,5.18,4.85,10.2,8.64,5.07h0v-.06Z"/>
        <path class="cls-2" d="m727.27,351.79c-36.17-12.71-76.75-16.16-114.65-13.21-6.41.5-6.47,10.53,0,10.03,37.23-2.9,76.53.39,111.98,12.82,6.13,2.17,8.75-7.52,2.68-9.7h0v.06Z"/>
        <path class="cls-2" d="m686.58,462.77c-23.19-31.16-54.51-57.52-88.4-76.14-5.69-3.12-10.76,5.57-5.07,8.64,32.33,17.67,62.71,42.81,84.83,72.52,3.79,5.13,12.54.11,8.64-5.07h0v.06Z"/>
      </g>
      <g id="head">
        <path class="cls-2" d="m627,309.88c9.42,121.85-113.71,206.51-264.65,218.16-150.94,11.65-282.87-36.95-292.24-158.8-9.42-121.85,107.24-270.78,258.18-282.43,150.94-11.65,289.34,101.22,298.76,223.07h-.06Z"/>
      </g>
      <g id="eyes-white">
        <ellipse class="cls-3" cx="234.04" cy="312.22" rx="86.06" ry="109.03"/>
        <ellipse class="cls-3" cx="491.83" cy="307.81" rx="86.06" ry="109.03"/>
      </g>
      <g id="eyes">
        <path class="cls-2" d="m580.4,345.44c1.23,39.74-17.56,72.57-41.92,73.3-24.36.72-45.09-30.88-46.32-70.62-1.23-39.74,17.56-72.57,41.92-73.3,24.36-.78,45.09,30.88,46.32,70.62Z"/>
        <path class="cls-3" d="m543.56,303.24c-.45,11.87-6.97,21.24-14.49,20.96-7.58-.28-13.32-10.14-12.88-22.02.45-11.87,6.97-21.24,14.55-20.96,7.58.28,13.32,10.14,12.88,22.02h-.06Z"/>
        <path class="cls-2" d="m318.09,354.86c1.23,39.74-17.56,72.57-41.92,73.3-24.36.72-45.09-30.88-46.32-70.62-1.23-39.74,17.56-72.57,41.92-73.3,24.36-.78,45.09,30.88,46.32,70.62Z"/>
        <path class="cls-3" d="m281.25,312.66c-.45,11.87-6.97,21.24-14.49,20.96-7.58-.28-13.32-10.14-12.88-22.02.45-11.87,6.97-21.24,14.55-20.96,7.58.28,13.32,10.14,12.88,22.02h-.06Z"/>
      </g>
    </g>
  </g>
  <g id="Layer_5" data-name="Layer 5">
    <g>
      <text class="cls-4" transform="translate(642.36 600.81) scale(1.1 1)"><tspan x="0" y="0">SOTO</tspan></text>
      <text class="cls-1" transform="translate(920.85 364.5)"><tspan class="cls-5" x="0" y="0">W</tspan><tspan class="cls-6" x="131.04" y="0">ORLD OF</tspan></text>
    </g>
  </g>
</svg>