<?xml version="1.0" encoding="UTF-8"?>
<svg xmlns="http://www.w3.org/2000/svg" viewBox="0 0 1677.38 687.32">
  <defs>
    <style>
      .cls-1 {
        font-family: BrandonGrotesque-Light, 'Brandon Grotesque';
        font-size: 120px;
        font-weight: 300;
        stroke: #fff;
        stroke-linecap: round;
        stroke-linejoin: round;
        stroke-width: 2px;
      }

      .cls-2, .cls-3 {
        stroke-width: 0px;
      }

      .cls-4 {
        font-family: FragmentCoreRom, 'Fragment Core';
        font-size: 500px;
        letter-spacing: .07em;
      }

      .cls-3 {
        fill: #fff;
      }

      .cls-5 {
        letter-spacing: .2em;
      }

      .cls-6 {
        letter-spacing: .2em;
      }
    </style>
  </defs>
  <g id="Layer_2" data-name="Layer 2">
    <g>
      <g id="tail">
        <path class="cls-2" d="m442.81,658.39c-27.49,28.8-148.88,31.84-186.64,27.13-34.04-4.24-52.58-31.16-59.54-51.11-17.28-49.8,11.42-98.66,44.72-85.94,27.02,10.32,11.68,45.14,12.46,65.98,1.31,32.73,48.55,41.63,73.05,33.46,20.06-6.65,74.83-11.05,80.49-26.18"/>
      </g>
      <g id="body">
        <path class="cls-2" d="m298.12,493.42c-18.01,27.6-57.82,112.07-4.56,157.42,37.39,31.84,148.26,32.31,197.22-5.55,43.94-33.99-1.62-136.84-74.15-166.38"/>
      </g>
      <g id="ears">
        <path class="cls-2" d="m89.69,282.74s-44.3-179.47-1.26-205.6c35.4-21.47,151.56,78.19,151.56,78.19"/>
        <path class="cls-2" d="m479.16,179S428.31,1.26,377.93,0c-41.37-1.05-92.59,143.23-92.59,143.23"/>
      </g>
      <g id="whiskers">
        <path class="cls-2" d="m6.95,486.04c29.59-19.17,64.88-30.9,99.5-36.45,5.97-.94,3.46-10.05-2.51-9.11-35.3,5.66-71.59,17.81-101.75,37.39-5.08,3.3-.37,11.47,4.77,8.12h0v.05Z"/>
        <path class="cls-2" d="m72.51,573.97c13.83-32.47,35.98-62.42,61.95-86.04,4.5-4.08-2.2-10.74-6.65-6.65-26.5,24.09-49.33,54.83-63.42,87.93-2.36,5.55,5.76,10.32,8.12,4.77h0Z"/>
        <path class="cls-2" d="m654.96,284.11c-35.82-3.61-73.63,2.25-107.62,13.3-5.76,1.89-3.3,11,2.51,9.11,33.36-10.84,69.96-16.5,105.1-12.99,6.02.63,5.97-8.8,0-9.43h0Z"/>
        <path class="cls-2" d="m642.44,394.39c-28.07-23.3-62.48-40.48-97.62-49.96-5.87-1.57-8.38,7.49-2.51,9.11,33.41,9.01,66.67,25.29,93.43,47.55,4.66,3.88,11.36-2.78,6.65-6.65h0l.05-.05Z"/>
      </g>
      <g id="head">
        <path class="cls-2" d="m572.27,295.16c21.94,112.7-83.84,205.02-223.46,232.2-139.62,27.18-267.97-3.93-289.91-116.63-21.94-112.7,70.8-264.31,210.42-291.54,139.62-27.18,280.96,63.21,302.9,175.91l.05.05Z"/>
      </g>
      <g id="eyes-white">
        <path class="cls-3" d="m276.59,331.34c12.52,55.2-12.62,107.93-56.19,117.78-43.52,9.85-88.97-26.87-101.49-82.06-12.52-55.2,12.62-107.93,56.19-117.78,43.57-9.9,88.97,26.87,101.49,82.01v.05Z"/>
        <path class="cls-3" d="m511.89,273.74c12.52,55.2-12.62,107.93-56.19,117.78-43.52,9.9-88.97-26.87-101.49-82.06-12.52-55.2,12.62-107.93,56.19-117.78,43.52-9.9,88.97,26.87,101.49,82.06Z"/>
      </g>
      <g id="eyes">
        <path class="cls-2" d="m493.61,240.85c9.37,36.13-1,70.12-23.15,75.88-22.15,5.76-47.71-18.91-57.13-55.09-9.37-36.19,1-70.12,23.15-75.88,22.15-5.76,47.71,18.91,57.08,55.09h.05Z"/>
        <path class="cls-3" d="m451.09,209.9c2.04,10.95-1.94,20.9-8.96,22.2-6.97,1.31-14.3-6.49-16.34-17.49-2.04-10.95,1.99-20.9,8.96-22.2,6.97-1.31,14.3,6.55,16.34,17.49Z"/>
        <path class="cls-2" d="m255.17,304.01c9.37,36.13-.99,70.12-23.15,75.88-22.15,5.76-47.71-18.91-57.13-55.09-9.37-36.19.99-70.12,23.15-75.88,22.15-5.76,47.71,18.91,57.08,55.09h.05Z"/>
        <path class="cls-3" d="m212.65,273c2.04,10.95-1.94,20.9-8.96,22.2-6.97,1.31-14.3-6.49-16.34-17.49-2.04-10.95,1.99-20.9,8.96-22.2,6.97-1.31,14.3,6.55,16.34,17.49Z"/>
      </g>
    </g>
  </g>
  <g id="Layer_6_copy" data-name="Layer 6 copy">
    <text class="cls-4" transform="translate(540 523.64) scale(1.1 1)"><tspan x="0" y="0">SOTO</tspan></text>
    <text class="cls-1" transform="translate(818.5 287.33)"><tspan class="cls-5" x="0" y="0">W</tspan><tspan class="cls-6" x="131.04" y="0">ORLD OF</tspan></text>
  </g>
</svg>